SplineFontDB: 3.2
FontName: Untitled2
FullName: Untitled2
FamilyName: Untitled2
Weight: Regular
Copyright: Copyright (c) 2023, Lars
UComments: "2023-6-22: Created with FontForge (http://fontforge.org)"
Version: 001.000
ItalicAngle: 0
UnderlinePosition: -101.65
UnderlineWidth: 50.8251
Ascent: 853
Descent: 171
InvalidEm: 0
LayerCount: 2
Layer: 0 0 "Hinten" 1
Layer: 1 0 "Vorne" 0
XUID: [1021 898 851897094 18141]
OS2Version: 0
OS2_WeightWidthSlopeOnly: 0
OS2_UseTypoMetrics: 1
CreationTime: 1687423384
ModificationTime: 1687423625
OS2TypoAscent: 0
OS2TypoAOffset: 1
OS2TypoDescent: 0
OS2TypoDOffset: 1
OS2TypoLinegap: 0
OS2WinAscent: 0
OS2WinAOffset: 1
OS2WinDescent: 0
OS2WinDOffset: 1
HheadAscent: 0
HheadAOffset: 1
HheadDescent: 0
HheadDOffset: 1
OS2Vendor: 'PfEd'
MarkAttachClasses: 1
DEI: 91125
Encoding: ISO8859-1
UnicodeInterp: none
NameList: AGL For New Fonts
DisplaySize: -48
AntiAlias: 1
FitToEm: 0
WinInfo: 0 32 12
BeginPrivate: 0
EndPrivate
BeginChars: 256 53

StartChar: comma
Encoding: 44 44 0
Width: 249
Flags: HW
LayerCount: 2
Fore
SplineSet
93 -182 m 1
 94 -182 69 -169 18 -143 c 1
 18 -142 24 -132 36 -110 c 2
 58 -69 70 -29 70 11 c 2
 70 123 l 1
 192 123 l 1
 192 23 l 2
 192 -14 182 -52 164 -89 c 128
 146 -126 121 -157 93 -182 c 1
EndSplineSet
EndChar

StartChar: hyphen
Encoding: 45 45 1
Width: 396
Flags: HW
LayerCount: 2
Fore
SplineSet
336 254 m 1
 55 254 l 1
 55 370 l 1
 54 370 148 370 336 370 c 1
 336 254 l 1
EndSplineSet
EndChar

StartChar: period
Encoding: 46 46 2
Width: 296
Flags: HW
LayerCount: 2
Fore
SplineSet
63 71 m 0
 63 93 71 112 86 127 c 0
 101 141 120 148 144 148 c 0
 168 148 188 141 203 127 c 0
 218 112 226 93 226 71 c 0
 226 49 219 30 204 16 c 0
 188 1 168 -6 144 -6 c 0
 120 -6 101 1 86 16 c 0
 71 30 63 49 63 71 c 0
EndSplineSet
EndChar

StartChar: zero
Encoding: 48 48 3
Width: 586
Flags: HW
LayerCount: 2
Fore
SplineSet
540 301 m 2
 540 200 519 123 477 70 c 0
 435 17 375 -10 294 -10 c 0
 215 -10 154 16 112 68 c 0
 70 120 50 196 48 294 c 2
 48 428 l 2
 48 530 69 607 111 659 c 0
 153 711 214 738 293 738 c 0
 372 738 433 712 475 660 c 0
 517 608 538 533 540 435 c 2
 540 301 l 2
395 448 m 2
 395 508 387 552 370 580 c 0
 353 607 328 621 293 621 c 0
 259 621 234 608 218 582 c 0
 202 556 194 515 192 459 c 2
 192 282 l 2
 192 223 200 178 216 150 c 0
 232 121 258 106 294 106 c 0
 329 106 354 120 370 148 c 0
 386 176 394 218 395 275 c 2
 395 448 l 2
EndSplineSet
EndChar

StartChar: one
Encoding: 49 49 4
Width: 586
Flags: HW
LayerCount: 2
Fore
SplineSet
400 0 m 1
 256 0 l 1
 256 557 l 1
 256 558 199 540 84 504 c 1
 84 621 l 1
 385 729 l 1
 384 729 389 729 400 729 c 1
 400 0 l 1
EndSplineSet
EndChar

StartChar: two
Encoding: 50 50 5
Width: 586
Flags: HW
LayerCount: 2
Fore
SplineSet
548 0 m 1
 50 0 l 1
 50 99 l 1
 285 350 l 2
 317 385 341 415 357 442 c 0
 372 469 380 494 380 518 c 0
 380 550 372 576 356 594 c 128
 340 612 317 622 286 622 c 0
 254 622 227 610 208 588 c 0
 190 566 180 536 180 499 c 1
 35 499 l 1
 35 542 45 583 67 620 c 0
 88 657 118 685 156 707 c 0
 194 728 239 738 288 738 c 0
 363 738 421 720 463 684 c 0
 505 648 525 597 525 532 c 0
 525 496 515 459 497 422 c 128
 479 385 446 341 401 291 c 2
 402 290 347 232 236 116 c 1
 548 116 l 1
 548 0 l 1
EndSplineSet
EndChar

StartChar: three
Encoding: 51 51 6
Width: 586
Flags: HW
LayerCount: 2
Fore
SplineSet
196 428 m 1
 274 428 l 2
 311 428 338 438 355 456 c 0
 373 474 382 499 382 528 c 128
 382 557 373 580 355 597 c 0
 338 614 314 622 283 622 c 0
 256 622 232 614 214 599 c 128
 196 584 186 564 186 540 c 1
 41 540 l 1
 41 578 51 612 72 642 c 0
 93 671 121 695 158 712 c 0
 195 729 236 738 280 738 c 0
 357 738 418 720 460 683 c 0
 504 646 526 595 526 530 c 0
 526 497 516 466 496 438 c 128
 476 410 449 389 416 374 c 1
 458 359 488 337 507 308 c 0
 528 279 538 244 538 204 c 0
 538 139 514 86 467 48 c 128
 420 10 357 -10 280 -10 c 0
 208 -10 148 10 101 48 c 0
 55 86 32 138 32 200 c 1
 176 200 l 1
 176 172 186 149 207 132 c 128
 228 115 253 106 283 106 c 0
 318 106 345 116 364 134 c 0
 383 152 393 176 393 206 c 0
 393 278 353 315 273 315 c 2
 272 315 272 315 196 315 c 1
 196 428 l 1
EndSplineSet
EndChar

StartChar: four
Encoding: 52 52 7
Width: 586
Flags: HW
LayerCount: 2
Fore
SplineSet
477 274 m 1
 478 274 478 274 560 274 c 1
 560 158 l 1
 477 158 l 1
 477 0 l 1
 476 0 476 0 332 0 c 1
 332 158 l 1
 34 158 l 1
 28 248 l 1
 331 728 l 1
 477 728 l 1
 477 274 l 1
172 274 m 1
 332 274 l 1
 332 531 l 1
 332 530 329 525 323 514 c 1
 172 274 l 1
EndSplineSet
EndChar

StartChar: five
Encoding: 53 53 8
Width: 586
Flags: HW
LayerCount: 2
Fore
SplineSet
71 358 m 1
 113 728 l 1
 521 728 l 1
 521 608 l 1
 522 608 425 608 232 608 c 1
 214 451 l 1
 249 469 285 478 323 478 c 0
 392 478 447 456 486 414 c 128
 525 372 545 311 545 234 c 0
 545 187 535 145 515 107 c 0
 495 70 467 41 430 21 c 0
 393 0 349 -10 299 -10 c 0
 254 -10 213 -1 176 17 c 128
 139 35 109 60 87 92 c 128
 65 124 54 160 52 202 c 1
 196 202 l 1
 198 171 209 148 227 132 c 0
 245 115 269 106 298 106 c 0
 330 106 356 118 374 142 c 0
 391 166 400 200 400 242 c 0
 400 284 390 314 370 336 c 0
 350 358 321 370 284 370 c 0
 249 370 222 360 200 342 c 2
 186 330 l 1
 71 358 l 1
EndSplineSet
EndChar

StartChar: six
Encoding: 54 54 9
Width: 586
Flags: HW
LayerCount: 2
Fore
SplineSet
442 736 m 1
 442 616 l 1
 428 616 l 2
 363 614 310 598 270 566 c 0
 230 533 206 486 198 428 c 1
 236 467 286 487 344 487 c 0
 408 487 459 464 496 419 c 0
 533 374 552 314 552 240 c 0
 552 193 542 150 521 112 c 0
 500 74 471 44 434 22 c 0
 397 0 354 -10 306 -10 c 0
 229 -10 168 17 121 70 c 0
 74 123 50 195 50 284 c 2
 50 336 l 2
 50 414 65 484 95 545 c 0
 125 606 168 653 223 685 c 0
 280 719 345 736 418 736 c 2
 442 736 l 1
300 371 m 0
 277 371 255 365 237 353 c 0
 219 341 204 324 195 304 c 1
 195 260 l 2
 196 212 206 174 224 147 c 0
 242 120 269 106 304 106 c 0
 335 106 360 118 379 143 c 0
 398 168 408 200 408 238 c 0
 408 278 398 310 378 334 c 0
 358 358 332 370 300 371 c 0
EndSplineSet
EndChar

StartChar: seven
Encoding: 55 55 10
Width: 586
Flags: HW
LayerCount: 2
Fore
SplineSet
544 647 m 1
 263 0 l 1
 262 0 262 0 110 0 c 1
 392 611 l 1
 30 611 l 1
 30 728 l 1
 544 728 l 1
 544 647 l 1
EndSplineSet
EndChar

StartChar: eight
Encoding: 56 56 11
Width: 586
Flags: HW
LayerCount: 2
Fore
SplineSet
524 534 m 0
 524 498 515 467 498 440 c 0
 481 413 456 391 424 375 c 1
 459 358 486 334 508 305 c 0
 530 275 540 240 540 200 c 0
 540 135 518 84 474 46 c 0
 430 9 370 -10 294 -10 c 0
 218 -10 158 9 114 46 c 0
 70 83 48 135 48 200 c 0
 48 240 58 275 78 305 c 0
 99 335 127 358 162 375 c 1
 131 390 107 412 89 440 c 0
 72 467 63 498 63 534 c 0
 63 596 83 646 125 683 c 0
 167 720 223 738 294 738 c 0
 365 738 420 720 462 683 c 0
 504 646 524 596 524 534 c 0
394 210 m 0
 394 242 385 268 367 286 c 0
 349 304 324 314 293 314 c 0
 263 314 238 304 220 286 c 0
 202 268 192 242 192 210 c 0
 192 179 201 154 219 135 c 0
 237 116 262 106 294 106 c 0
 326 106 350 116 368 134 c 0
 385 152 394 178 394 210 c 0
380 528 m 0
 380 556 372 579 357 596 c 0
 343 613 322 622 294 622 c 0
 267 622 246 613 230 596 c 0
 215 580 208 557 208 528 c 0
 208 499 215 475 230 458 c 0
 245 441 266 432 294 431 c 0
 321 432 342 441 357 458 c 0
 372 475 380 499 380 528 c 0
EndSplineSet
EndChar

StartChar: nine
Encoding: 57 57 12
Width: 586
Flags: HW
LayerCount: 2
Fore
SplineSet
388 291 m 1
 351 254 307 236 256 236 c 0
 192 236 140 258 101 302 c 0
 63 346 43 405 43 480 c 0
 43 528 53 572 74 612 c 0
 96 652 125 683 162 705 c 128
 199 727 241 738 288 738 c 0
 336 738 379 726 416 702 c 128
 453 678 482 643 502 598 c 0
 523 553 533 501 534 444 c 2
 534 390 l 2
 534 268 504 173 444 104 c 128
 384 35 299 -2 187 -6 c 1
 188 -6 176 -6 152 -7 c 1
 152 -6 152 -6 152 114 c 1
 184 114 l 1
 309 120 377 179 388 291 c 1
291 346 m 0
 314 346 334 352 351 364 c 128
 368 376 381 391 390 408 c 1
 390 467 l 2
 390 516 380 554 362 581 c 0
 344 608 318 622 286 622 c 0
 257 622 233 609 215 582 c 0
 197 555 187 522 187 482 c 128
 187 442 196 409 214 384 c 128
 232 359 258 346 291 346 c 0
EndSplineSet
EndChar

StartChar: A
Encoding: 65 65 13
Width: 1024
VWidth: 853
Flags: HW
LayerCount: 2
Fore
SplineSet
457 -171 m 1
 457 -142 457 -142 457 58 c 2
 457 286 l 1
 0 286 l 1
 0 396 l 1
 457 396 l 1
 457 853 l 1
 567 853 l 1
 567 396 l 1
 1024 396 l 1
 1024 286 l 1
 567 286 l 1
 567 -171 l 1
 457 -171 l 1
 457 -171 l 1
EndSplineSet
EndChar

StartChar: B
Encoding: 66 66 14
Width: 1024
VWidth: 853
Flags: HW
LayerCount: 2
Fore
SplineSet
226 107 m 1
 162 107 108 129 65 176 c 128
 22 223 0 278 0 342 c 128
 0 406 23 461 66 507 c 128
 109 553 163 576 226 576 c 0
 252 576 278 571 301 563 c 128
 324 555 346 541 364 524 c 2
 463 428 l 1
 418 383 l 1
 323 476 l 2
 311 488 296 498 279 504 c 128
 262 510 244 512 226 512 c 0
 181 512 143 495 111 462 c 128
 79 429 64 390 64 343 c 128
 64 296 80 256 111 222 c 128
 142 188 180 171 226 171 c 0
 244 171 261 174 278 180 c 128
 295 186 310 194 323 206 c 2
 660 524 l 2
 678 541 700 555 723 563 c 128
 746 571 772 576 797 576 c 0
 861 576 915 553 958 507 c 128
 1001 461 1024 406 1024 342 c 128
 1024 278 1001 223 958 176 c 128
 915 129 861 107 797 107 c 0
 772 107 747 111 723 119 c 128
 699 127 678 140 660 158 c 2
 563 254 l 1
 608 299 l 1
 701 206 l 2
 713 194 728 186 745 180 c 128
 762 174 779 171 797 171 c 0
 843 171 881 188 913 222 c 128
 945 256 960 296 960 343 c 128
 960 390 944 429 912 462 c 128
 880 495 842 512 797 512 c 0
 779 512 762 509 745 502 c 128
 728 495 713 487 701 475 c 2
 364 157 l 2
 346 140 323 127 299 119 c 128
 275 111 251 107 226 107 c 1
 226 107 l 1
EndSplineSet
EndChar

StartChar: C
Encoding: 67 67 15
Width: 1024
VWidth: 853
Flags: HW
LayerCount: 2
Fore
SplineSet
512 -171 m 1
 480 -139 480 -139 256 85 c 2
 0 341 l 1
 67 408 l 1
 464 11 l 1
 464 853 l 1
 560 853 l 1
 560 11 l 1
 957 408 l 1
 1024 341 l 1
 512 -171 l 1
 512 -171 l 1
EndSplineSet
EndChar

StartChar: D
Encoding: 68 68 16
Width: 1024
VWidth: 853
Flags: HW
LayerCount: 2
Fore
SplineSet
464 -171 m 1
 464 -118 464 -118 464 250 c 2
 464 671 l 1
 67 274 l 1
 0 341 l 1
 512 853 l 1
 1024 341 l 1
 957 274 l 1
 560 671 l 1
 560 -171 l 1
 464 -171 l 1
 464 -171 l 1
EndSplineSet
EndChar

StartChar: E
Encoding: 69 69 17
Width: 1024
VWidth: 853
Flags: HW
LayerCount: 2
Fore
SplineSet
295 -171 m 1
 284 -171 275 -167 268 -160 c 128
 261 -153 257 -144 257 -133 c 2
 257 733 l 2
 257 744 261 753 268 760 c 128
 275 767 284 771 295 771 c 2
 410 771 l 1
 410 853 l 1
 615 853 l 1
 615 771 l 1
 730 771 l 2
 741 771 750 767 757 760 c 128
 764 753 769 744 769 733 c 2
 769 -133 l 2
 769 -144 764 -153 757 -160 c 128
 750 -167 741 -171 730 -171 c 2
 295 -171 l 1
 295 -171 l 1
333 300 m 1
 356 300 356 300 513 300 c 2
 692 300 l 1
 692 694 l 1
 333 694 l 1
 333 300 l 1
 333 300 l 1
EndSplineSet
EndChar

StartChar: F
Encoding: 70 70 18
Width: 1024
VWidth: 853
Flags: HW
LayerCount: 2
Fore
SplineSet
28 208 m 1
 20 208 13 211 8 216 c 128
 3 221 0 228 0 236 c 128
 0 244 3 252 8 257 c 128
 13 262 20 265 28 265 c 128
 36 265 42 262 48 257 c 128
 54 252 57 244 57 236 c 128
 57 228 54 221 48 216 c 128
 42 211 36 208 28 208 c 1
 28 208 l 1
28 418 m 1
 20 418 13 421 8 426 c 128
 3 431 0 438 0 446 c 128
 0 454 3 462 8 467 c 128
 13 472 20 475 28 475 c 128
 36 475 42 472 48 467 c 128
 54 462 57 454 57 446 c 128
 57 438 54 431 48 426 c 128
 42 421 36 418 28 418 c 1
 28 418 l 1
189 -33 m 1
 174 -33 162 -29 152 -19 c 128
 142 -9 137 3 137 18 c 128
 137 33 142 45 152 55 c 128
 162 65 174 69 188 69 c 128
 202 69 215 65 225 55 c 128
 235 45 240 32 240 18 c 128
 240 4 235 -8 225 -18 c 128
 215 -28 203 -33 189 -33 c 1
 189 -33 l 1
189 185 m 1
 174 185 162 190 152 200 c 128
 142 210 137 222 137 236 c 128
 137 250 142 263 152 273 c 128
 162 283 174 288 188 288 c 128
 202 288 215 283 225 273 c 128
 235 263 240 250 240 236 c 128
 240 222 235 210 225 200 c 128
 215 190 203 185 189 185 c 1
 189 185 l 1
189 395 m 1
 174 395 162 400 152 410 c 128
 142 420 137 432 137 446 c 128
 137 460 142 473 152 483 c 128
 162 493 174 498 188 498 c 128
 202 498 215 493 225 483 c 128
 235 473 240 460 240 446 c 128
 240 432 235 420 225 410 c 128
 215 400 203 395 189 395 c 1
 189 395 l 1
189 614 m 1
 174 614 162 619 152 629 c 128
 142 639 137 651 137 665 c 128
 137 679 142 691 152 701 c 128
 162 711 174 716 188 716 c 128
 202 716 215 711 225 701 c 128
 235 691 240 680 240 665 c 128
 240 650 235 639 225 629 c 128
 215 619 203 614 189 614 c 1
 189 614 l 1
407 164 m 1
 387 164 370 171 356 185 c 128
 342 199 334 216 334 236 c 128
 334 256 342 274 356 288 c 128
 370 302 387 309 407 309 c 128
 427 309 444 302 458 288 c 128
 472 274 480 256 480 236 c 128
 480 216 472 199 458 185 c 128
 444 171 427 164 407 164 c 1
 407 164 l 1
407 374 m 1
 387 374 370 381 356 395 c 128
 342 409 334 426 334 446 c 128
 334 466 342 484 356 498 c 128
 370 512 387 519 407 519 c 128
 427 519 444 512 458 498 c 128
 472 484 480 466 480 446 c 128
 480 426 472 409 458 395 c 128
 444 381 427 374 407 374 c 1
 407 374 l 1
407 -33 m 1
 392 -33 381 -29 371 -19 c 128
 361 -9 356 3 356 18 c 128
 356 33 361 45 371 55 c 128
 381 65 393 69 407 69 c 128
 421 69 433 65 443 55 c 128
 453 45 458 32 458 18 c 128
 458 4 453 -8 443 -18 c 128
 433 -28 422 -33 407 -33 c 1
 407 -33 l 1
407 614 m 1
 392 614 381 619 371 629 c 128
 361 639 356 651 356 665 c 128
 356 679 361 691 371 701 c 128
 381 711 393 716 407 716 c 128
 421 716 433 711 443 701 c 128
 453 691 458 680 458 665 c 128
 458 650 453 639 443 629 c 128
 433 619 422 614 407 614 c 1
 407 614 l 1
407 -170 m 1
 399 -170 392 -167 387 -162 c 128
 382 -157 379 -150 379 -142 c 128
 379 -134 382 -127 387 -122 c 128
 392 -117 399 -114 407 -114 c 128
 415 -114 422 -117 427 -122 c 128
 432 -127 435 -134 435 -142 c 128
 435 -150 432 -157 427 -162 c 128
 422 -167 415 -170 407 -170 c 1
 407 -170 l 1
407 797 m 1
 399 797 392 800 387 805 c 128
 382 810 379 817 379 825 c 128
 379 833 382 840 387 845 c 128
 392 850 399 853 407 853 c 128
 415 853 422 850 427 845 c 128
 432 840 435 833 435 825 c 128
 435 817 432 810 427 805 c 128
 422 800 415 797 407 797 c 1
 407 797 l 1
617 164 m 1
 597 164 580 171 566 185 c 128
 552 199 544 216 544 236 c 128
 544 256 552 274 566 288 c 128
 580 302 597 309 617 309 c 128
 637 309 654 302 668 288 c 128
 682 274 690 256 690 236 c 128
 690 216 682 199 668 185 c 128
 654 171 637 164 617 164 c 1
 617 164 l 1
617 374 m 1
 597 374 580 381 566 395 c 128
 552 409 544 426 544 446 c 128
 544 466 552 484 566 498 c 128
 580 512 597 519 617 519 c 128
 637 519 654 512 668 498 c 128
 682 484 690 466 690 446 c 128
 690 426 682 409 668 395 c 128
 654 381 637 374 617 374 c 1
 617 374 l 1
617 -33 m 1
 603 -33 591 -29 581 -19 c 128
 571 -9 566 3 566 18 c 128
 566 33 571 45 581 55 c 128
 591 65 602 69 617 69 c 128
 632 69 643 65 653 55 c 128
 663 45 668 32 668 18 c 128
 668 4 663 -8 653 -18 c 128
 643 -28 632 -33 617 -33 c 1
 617 -33 l 1
617 614 m 1
 603 614 591 619 581 629 c 128
 571 639 566 651 566 665 c 128
 566 679 571 691 581 701 c 128
 591 711 602 716 617 716 c 128
 632 716 643 711 653 701 c 128
 663 691 668 680 668 665 c 128
 668 650 663 639 653 629 c 128
 643 619 632 614 617 614 c 1
 617 614 l 1
617 797 m 1
 609 797 602 800 597 805 c 128
 592 810 589 817 589 825 c 128
 589 833 592 840 597 845 c 128
 602 850 609 853 617 853 c 128
 625 853 632 850 637 845 c 128
 642 840 645 833 645 825 c 128
 645 817 642 810 637 805 c 128
 632 800 625 797 617 797 c 1
 617 797 l 1
625 -170 m 1
 617 -170 610 -167 605 -162 c 128
 600 -157 597 -150 597 -142 c 128
 597 -134 600 -127 605 -122 c 128
 610 -117 617 -114 625 -114 c 128
 633 -114 640 -117 645 -122 c 128
 650 -127 653 -134 653 -142 c 128
 653 -150 650 -157 645 -162 c 128
 640 -167 633 -170 625 -170 c 1
 625 -170 l 1
836 -33 m 1
 821 -33 809 -29 799 -19 c 128
 789 -9 784 3 784 18 c 128
 784 33 789 45 799 55 c 128
 809 65 822 69 836 69 c 128
 850 69 862 65 872 55 c 128
 882 45 887 32 887 18 c 128
 887 4 882 -8 872 -18 c 128
 862 -28 850 -33 836 -33 c 1
 836 -33 l 1
836 185 m 1
 821 185 809 190 799 200 c 128
 789 210 784 222 784 236 c 128
 784 250 789 263 799 273 c 128
 809 283 822 288 836 288 c 128
 850 288 862 283 872 273 c 128
 882 263 887 250 887 236 c 128
 887 222 882 210 872 200 c 128
 862 190 850 185 836 185 c 1
 836 185 l 1
836 395 m 1
 821 395 809 400 799 410 c 128
 789 420 784 432 784 446 c 128
 784 460 789 473 799 483 c 128
 809 493 822 498 836 498 c 128
 850 498 862 493 872 483 c 128
 882 473 887 460 887 446 c 128
 887 432 882 420 872 410 c 128
 862 400 850 395 836 395 c 1
 836 395 l 1
836 614 m 1
 821 614 809 619 799 629 c 128
 789 639 784 651 784 665 c 128
 784 679 789 691 799 701 c 128
 809 711 822 716 836 716 c 128
 850 716 862 711 872 701 c 128
 882 691 887 680 887 665 c 128
 887 650 882 639 872 629 c 128
 862 619 850 614 836 614 c 1
 836 614 l 1
996 208 m 1
 988 208 982 211 976 216 c 128
 970 221 967 228 967 236 c 128
 967 244 970 252 976 257 c 128
 982 262 988 265 996 265 c 128
 1004 265 1011 262 1016 257 c 128
 1021 252 1024 244 1024 236 c 128
 1024 228 1021 221 1016 216 c 128
 1011 211 1004 208 996 208 c 1
 996 208 l 1
996 418 m 1
 988 418 982 421 976 426 c 128
 970 431 967 438 967 446 c 128
 967 454 970 462 976 467 c 128
 982 472 988 475 996 475 c 128
 1004 475 1011 472 1016 467 c 128
 1021 462 1024 454 1024 446 c 128
 1024 438 1021 431 1016 426 c 128
 1011 421 1004 418 996 418 c 1
 996 418 l 1
EndSplineSet
EndChar

StartChar: G
Encoding: 71 71 19
Width: 1024
VWidth: 853
Flags: HW
LayerCount: 2
Fore
SplineSet
401 -62 m 1
 416 -44 475 27 579 152 c 2
 758 367 l 1
 527 367 l 1
 574 733 l 1
 250 264 l 1
 447 264 l 1
 401 -62 l 1
 401 -62 l 1
307 -171 m 1
 309 -156 318 -97 333 8 c 2
 359 187 l 1
 103 187 l 1
 563 853 l 1
 666 853 l 1
 615 443 l 1
 922 443 l 1
 410 -171 l 1
 307 -171 l 1
 307 -171 l 1
503 335 m 1024
EndSplineSet
EndChar

StartChar: H
Encoding: 72 72 20
Width: 1024
VWidth: 853
Flags: HW
LayerCount: 2
Fore
SplineSet
276 -17 m 1
 280 -17 280 -17 311 -17 c 2
 347 -17 l 1
 347 108 l 1
 472 108 l 1
 472 179 l 1
 347 179 l 1
 347 304 l 1
 276 304 l 1
 276 179 l 1
 151 179 l 1
 151 108 l 1
 276 108 l 1
 276 -17 l 1
 276 -17 l 1
582 32 m 1
 600 32 600 32 725 32 c 2
 868 32 l 1
 868 102 l 1
 582 102 l 1
 582 32 l 1
 582 32 l 1
582 185 m 1
 600 185 600 185 725 185 c 2
 868 185 l 1
 868 256 l 1
 582 256 l 1
 582 185 l 1
 582 185 l 1
634 416 m 1
 640 422 640 422 678 460 c 2
 721 503 l 1
 808 416 l 1
 859 468 l 1
 772 554 l 1
 859 641 l 1
 808 692 l 1
 721 606 l 1
 634 692 l 1
 583 641 l 1
 670 554 l 1
 583 468 l 1
 634 416 l 1
 634 416 l 1
172 519 m 1
 190 519 190 519 311 519 c 2
 451 519 l 1
 451 590 l 1
 172 590 l 1
 172 519 l 1
 172 519 l 1
85 -171 m 1
 63 -171 43 -162 26 -145 c 128
 9 -128 0 -108 0 -86 c 2
 0 768 l 2
 0 790 9 810 26 827 c 128
 43 844 63 853 85 853 c 2
 939 853 l 2
 961 853 981 844 998 827 c 128
 1015 810 1024 790 1024 768 c 2
 1024 -86 l 2
 1024 -108 1015 -128 998 -145 c 128
 981 -162 961 -171 939 -171 c 2
 85 -171 l 1
 85 -171 l 1
85 -86 m 1
 139 -86 139 -86 512 -86 c 2
 939 -86 l 1
 939 768 l 1
 85 768 l 1
 85 -86 l 1
 85 -86 l 1
85 768 m 1
 85 714 85 714 85 341 c 2
 85 -86 l 1
 85 768 l 1
 85 768 l 1
EndSplineSet
EndChar

StartChar: I
Encoding: 73 73 21
Width: 1024
VWidth: 853
Flags: HW
LayerCount: 2
Fore
SplineSet
512 75 m 1
 439 75 376 101 324 153 c 128
 272 205 246 268 246 341 c 128
 246 414 272 477 324 529 c 128
 376 581 439 607 512 607 c 128
 585 607 648 581 700 529 c 128
 752 477 778 414 778 341 c 128
 778 268 752 205 700 153 c 128
 648 101 585 75 512 75 c 1
 512 75 l 1
512 160 m 1
 564 160 606 177 641 212 c 128
 676 247 693 289 693 341 c 128
 693 393 676 435 641 470 c 128
 606 505 564 522 512 522 c 128
 460 522 418 505 383 470 c 128
 348 435 331 393 331 341 c 128
 331 289 348 247 383 212 c 128
 418 177 460 160 512 160 c 1
 512 160 l 1
85 -171 m 1
 63 -171 43 -162 26 -145 c 128
 9 -128 0 -108 0 -86 c 2
 0 159 l 1
 85 159 l 1
 85 -86 l 1
 330 -86 l 1
 330 -171 l 1
 85 -171 l 1
 85 -171 l 1
694 -171 m 1
 694 -166 694 -166 694 -128 c 2
 694 -86 l 1
 939 -86 l 1
 939 159 l 1
 1024 159 l 1
 1024 -86 l 2
 1024 -108 1015 -128 998 -145 c 128
 981 -162 961 -171 939 -171 c 2
 694 -171 l 1
 694 -171 l 1
0 523 m 1
 0 538 0 538 0 645 c 2
 0 768 l 2
 0 790 9 810 26 827 c 128
 43 844 63 853 85 853 c 2
 330 853 l 1
 330 768 l 1
 85 768 l 1
 85 523 l 1
 0 523 l 1
 0 523 l 1
939 523 m 1
 939 538 939 538 939 645 c 2
 939 768 l 1
 694 768 l 1
 694 853 l 1
 939 853 l 2
 961 853 981 844 998 827 c 128
 1015 810 1024 790 1024 768 c 2
 1024 523 l 1
 939 523 l 1
 939 523 l 1
512 341 m 1024
EndSplineSet
EndChar

StartChar: J
Encoding: 74 74 22
Width: 1024
VWidth: 853
Flags: HW
LayerCount: 2
Fore
SplineSet
425 115 m 1
 442 132 511 201 631 320 c 2
 836 526 l 1
 775 587 l 1
 425 237 l 1
 256 406 l 1
 195 345 l 1
 425 115 l 1
 425 115 l 1
85 -171 m 1
 63 -171 43 -162 26 -145 c 128
 9 -128 0 -108 0 -86 c 2
 0 768 l 2
 0 790 9 810 26 827 c 128
 43 844 63 853 85 853 c 2
 939 853 l 2
 961 853 981 844 998 827 c 128
 1015 810 1024 790 1024 768 c 2
 1024 -86 l 2
 1024 -108 1015 -128 998 -145 c 128
 981 -162 961 -171 939 -171 c 2
 85 -171 l 1
 85 -171 l 1
85 -86 m 1
 139 -86 139 -86 512 -86 c 2
 939 -86 l 1
 939 768 l 1
 85 768 l 1
 85 -86 l 1
 85 -86 l 1
85 768 m 1
 85 714 85 714 85 341 c 2
 85 -86 l 1
 85 768 l 1
 85 768 l 1
EndSplineSet
EndChar

StartChar: K
Encoding: 75 75 23
Width: 1024
VWidth: 853
Flags: HW
LayerCount: 2
Fore
SplineSet
85 -171 m 1
 63 -171 43 -162 26 -145 c 128
 9 -128 0 -108 0 -86 c 2
 0 768 l 2
 0 790 9 810 26 827 c 128
 43 844 63 853 85 853 c 2
 939 853 l 2
 961 853 981 844 998 827 c 128
 1015 810 1024 790 1024 768 c 2
 1024 -86 l 2
 1024 -108 1015 -128 998 -145 c 128
 981 -162 961 -171 939 -171 c 2
 85 -171 l 1
 85 -171 l 1
85 -86 m 1
 139 -86 139 -86 512 -86 c 2
 939 -86 l 1
 939 768 l 1
 85 768 l 1
 85 -86 l 1
 85 -86 l 1
EndSplineSet
EndChar

StartChar: L
Encoding: 76 76 24
Width: 1024
VWidth: 853
Flags: HW
LayerCount: 2
Fore
SplineSet
77 802 m 1
 81 794 97 762 124 705 c 2
 172 608 l 1
 338 608 l 1
 243 802 l 1
 357 802 l 1
 452 608 l 1
 618 608 l 1
 524 802 l 1
 637 802 l 1
 732 608 l 1
 899 608 l 1
 804 802 l 1
 947 802 l 2
 968 802 986 794 1001 779 c 128
 1016 764 1024 746 1024 725 c 2
 1024 -43 l 2
 1024 -63 1016 -81 1001 -97 c 128
 986 -113 968 -120 947 -119 c 2
 77 -119 l 2
 56 -119 38 -111 23 -96 c 128
 8 -81 0 -63 0 -43 c 2
 0 725 l 2
 0 746 8 764 23 779 c 128
 38 794 56 802 77 802 c 1
 77 802 l 1
77 531 m 1
 77 495 77 495 77 244 c 2
 77 -43 l 1
 947 -43 l 1
 947 531 l 1
 77 531 l 1
 77 531 l 1
77 531 m 1
 77 495 77 495 77 244 c 2
 77 -43 l 1
 77 531 l 1
 77 531 l 1
307 34 m 1
 333 34 333 34 512 34 c 2
 717 34 l 1
 717 75 l 2
 717 111 699 138 662 158 c 128
 625 178 576 188 512 188 c 128
 448 188 399 178 362 158 c 128
 325 138 307 111 307 75 c 2
 307 34 l 1
 307 34 l 1
512 265 m 1
 538 265 561 274 579 292 c 128
 597 310 607 333 607 359 c 128
 607 385 597 408 579 426 c 128
 561 444 538 454 512 454 c 128
 486 454 463 444 445 426 c 128
 427 408 417 385 417 359 c 128
 417 333 427 310 445 292 c 128
 463 274 486 265 512 265 c 1
 512 265 l 1
EndSplineSet
EndChar

StartChar: M
Encoding: 77 77 25
Width: 1024
VWidth: 853
Flags: HW
LayerCount: 2
Fore
SplineSet
79 -171 m 1
 76 -168 62 -154 39 -132 c 2
 0 -92 l 1
 433 341 l 1
 0 774 l 1
 79 853 l 1
 512 420 l 1
 945 853 l 1
 1024 774 l 1
 591 341 l 1
 1024 -92 l 1
 945 -171 l 1
 512 262 l 1
 79 -171 l 1
 79 -171 l 1
EndSplineSet
EndChar

StartChar: N
Encoding: 78 78 26
Width: 1024
VWidth: 853
Flags: HW
LayerCount: 2
Fore
SplineSet
201 -171 m 1
 177 -171 157 -163 140 -146 c 128
 123 -129 115 -109 115 -86 c 2
 115 725 l 1
 57 725 l 1
 57 810 l 1
 324 810 l 1
 324 853 l 1
 700 853 l 1
 700 810 l 1
 967 810 l 1
 967 725 l 1
 909 725 l 1
 909 -86 l 2
 909 -108 900 -128 883 -145 c 128
 866 -162 846 -171 824 -171 c 2
 201 -171 l 1
 201 -171 l 1
824 725 m 1
 785 725 785 725 512 725 c 2
 201 725 l 1
 201 -86 l 1
 824 -86 l 1
 824 725 l 1
 824 725 l 1
351 37 m 1
 357 37 357 37 394 37 c 2
 437 37 l 1
 437 604 l 1
 351 604 l 1
 351 37 l 1
 351 37 l 1
587 37 m 1
 593 37 593 37 630 37 c 2
 673 37 l 1
 673 604 l 1
 587 604 l 1
 587 37 l 1
 587 37 l 1
201 725 m 1
 201 674 201 674 201 320 c 2
 201 -86 l 1
 201 725 l 1
 201 725 l 1
EndSplineSet
EndChar

StartChar: O
Encoding: 79 79 27
Width: 1024
VWidth: 853
Flags: HW
LayerCount: 2
Fore
SplineSet
508 -171 m 1
 366 -171 246 -121 148 -21 c 128
 50 79 0 200 0 342 c 1
 85 342 l 1
 85 224 125 123 207 40 c 128
 289 -43 390 -86 508 -86 c 0
 628 -86 730 -43 813 41 c 128
 896 125 939 227 939 348 c 0
 939 465 896 564 812 646 c 128
 728 728 626 768 508 768 c 0
 443 768 384 754 327 724 c 128
 270 694 221 655 179 607 c 1
 329 607 l 1
 329 522 l 1
 31 522 l 1
 31 817 l 1
 117 817 l 1
 117 667 l 1
 166 724 225 770 292 803 c 128
 359 836 432 853 508 853 c 0
 579 853 646 840 708 813 c 128
 770 786 825 750 872 704 c 128
 919 658 956 605 983 543 c 128
 1010 481 1024 416 1024 344 c 128
 1024 272 1010 205 983 143 c 128
 956 81 919 27 872 -20 c 128
 825 -67 770 -103 708 -130 c 128
 646 -157 579 -171 508 -171 c 1
 508 -171 l 1
690 109 m 1
 681 118 644 155 580 217 c 2
 471 325 l 1
 471 630 l 1
 556 630 l 1
 556 361 l 1
 751 170 l 1
 690 109 l 1
 690 109 l 1
EndSplineSet
EndChar

StartChar: P
Encoding: 80 80 28
Width: 1024
VWidth: 853
Flags: HW
LayerCount: 2
Fore
SplineSet
352 -28 m 1
 330 -6 330 -6 176 148 c 2
 0 324 l 1
 68 391 l 1
 352 107 l 1
 956 711 l 1
 1024 643 l 1
 352 -28 l 1
 352 -28 l 1
EndSplineSet
EndChar

StartChar: Q
Encoding: 81 81 29
Width: 1024
VWidth: 853
Flags: HW
LayerCount: 2
Fore
SplineSet
96 -171 m 1
 71 -171 48 -161 29 -142 c 128
 10 -123 0 -100 0 -75 c 2
 0 154 l 1
 96 154 l 1
 96 -75 l 1
 928 -75 l 1
 928 154 l 1
 1024 154 l 1
 1024 -75 l 2
 1024 -100 1014 -123 995 -142 c 128
 976 -161 953 -171 928 -171 c 2
 96 -171 l 1
 96 -171 l 1
512 74 m 1
 493 93 493 93 358 228 c 2
 203 383 l 1
 272 451 l 1
 464 259 l 1
 464 853 l 1
 560 853 l 1
 560 259 l 1
 752 451 l 1
 821 383 l 1
 512 74 l 1
 512 74 l 1
EndSplineSet
EndChar

StartChar: R
Encoding: 82 82 30
Width: 1024
VWidth: 853
Flags: HW
LayerCount: 2
Fore
SplineSet
512 -171 m 1
 499 -158 499 -158 408 -67 c 2
 303 38 l 1
 360 94 l 1
 474 -20 l 1
 474 303 l 1
 151 303 l 1
 259 195 l 1
 202 139 l 1
 0 341 l 1
 204 545 l 1
 260 488 l 1
 151 379 l 1
 474 379 l 1
 474 702 l 1
 366 594 l 1
 310 651 l 1
 512 853 l 1
 714 651 l 1
 658 594 l 1
 550 702 l 1
 550 379 l 1
 873 379 l 1
 765 487 l 1
 822 543 l 1
 1024 341 l 1
 822 139 l 1
 765 195 l 1
 873 303 l 1
 550 303 l 1
 550 -20 l 1
 664 94 l 1
 721 38 l 1
 512 -171 l 1
 512 -171 l 1
EndSplineSet
EndChar

StartChar: S
Encoding: 83 83 31
Width: 1024
VWidth: 853
Flags: HW
LayerCount: 2
Fore
SplineSet
84 -87 m 1
 88 -87 88 -87 115 -87 c 2
 145 -87 l 1
 764 532 l 1
 703 593 l 1
 84 -26 l 1
 84 -87 l 1
 84 -87 l 1
942 592 m 1
 934 599 904 629 852 681 c 2
 763 771 l 1
 821 829 l 2
 837 845 857 853 880 853 c 128
 903 853 923 845 939 829 c 2
 1000 768 l 2
 1016 752 1024 732 1024 709 c 128
 1024 686 1016 666 1000 650 c 2
 942 592 l 1
 942 592 l 1
883 533 m 1
 839 489 839 489 531 181 c 2
 179 -171 l 1
 0 -171 l 1
 0 8 l 1
 704 712 l 1
 883 533 l 1
 883 533 l 1
733 562 m 1
 732 564 727 569 718 578 c 2
 703 593 l 1
 764 532 l 1
 733 562 l 1
 733 562 l 1
EndSplineSet
EndChar

StartChar: T
Encoding: 84 84 32
Width: 1024
VWidth: 853
Flags: HW
LayerCount: 2
Fore
SplineSet
0 306 m 1
 0 310 0 310 0 341 c 2
 0 376 l 1
 270 376 l 1
 270 306 l 1
 0 306 l 1
 0 306 l 1
315 489 m 1
 312 493 296 508 269 535 c 2
 222 582 l 1
 271 631 l 1
 364 538 l 1
 315 489 l 1
 315 489 l 1
477 583 m 1
 477 600 477 600 477 718 c 2
 477 853 l 1
 547 853 l 1
 547 583 l 1
 477 583 l 1
 477 583 l 1
709 489 m 1
 707 491 699 499 684 513 c 2
 660 538 l 1
 753 631 l 1
 802 582 l 1
 709 489 l 1
 709 489 l 1
754 306 m 1
 754 310 754 310 754 341 c 2
 754 376 l 1
 1024 376 l 1
 1024 306 l 1
 754 306 l 1
 754 306 l 1
512 222 m 1
 480 222 451 234 428 257 c 128
 405 280 393 309 393 341 c 128
 393 373 405 402 428 425 c 128
 451 448 480 460 512 460 c 128
 544 460 573 448 596 425 c 128
 619 402 631 373 631 341 c 128
 631 309 619 280 596 257 c 128
 573 234 544 222 512 222 c 1
 512 222 l 1
759 45 m 1
 755 50 738 67 709 95 c 2
 660 144 l 1
 709 193 l 1
 808 94 l 1
 759 45 l 1
 759 45 l 1
265 45 m 1
 263 47 255 55 241 70 c 2
 216 94 l 1
 315 193 l 1
 364 144 l 1
 265 45 l 1
 265 45 l 1
477 -171 m 1
 477 -154 477 -154 477 -36 c 2
 477 99 l 1
 547 99 l 1
 547 -171 l 1
 477 -171 l 1
 477 -171 l 1
EndSplineSet
EndChar

StartChar: U
Encoding: 85 85 33
Width: 1024
VWidth: 853
Flags: HW
LayerCount: 2
Fore
SplineSet
435 75 m 1
 445 89 485 146 554 246 c 2
 673 418 l 1
 512 418 l 1
 616 776 l 1
 282 776 l 1
 282 315 l 1
 435 315 l 1
 435 75 l 1
 435 75 l 1
359 -171 m 1
 359 -145 359 -145 359 34 c 2
 359 239 l 1
 205 239 l 1
 205 853 l 1
 717 853 l 1
 615 495 l 1
 819 495 l 1
 359 -171 l 1
 359 -171 l 1
435 315 m 1
 426 315 426 315 359 315 c 2
 282 315 l 1
 435 315 l 1
 435 315 l 1
EndSplineSet
EndChar

StartChar: V
Encoding: 86 86 34
Width: 1024
VWidth: 853
Flags: HW
LayerCount: 2
Fore
SplineSet
85 -171 m 1
 63 -171 43 -162 26 -145 c 128
 9 -128 0 -108 0 -86 c 2
 0 159 l 1
 85 159 l 1
 85 -86 l 1
 330 -86 l 1
 330 -171 l 1
 85 -171 l 1
 85 -171 l 1
694 -171 m 1
 694 -166 694 -166 694 -128 c 2
 694 -86 l 1
 939 -86 l 1
 939 159 l 1
 1024 159 l 1
 1024 -86 l 2
 1024 -108 1015 -128 998 -145 c 128
 981 -162 961 -171 939 -171 c 2
 694 -171 l 1
 694 -171 l 1
0 523 m 1
 0 538 0 538 0 645 c 2
 0 768 l 2
 0 790 9 810 26 827 c 128
 43 844 63 853 85 853 c 2
 330 853 l 1
 330 768 l 1
 85 768 l 1
 85 523 l 1
 0 523 l 1
 0 523 l 1
939 523 m 1
 939 538 939 538 939 645 c 2
 939 768 l 1
 694 768 l 1
 694 853 l 1
 939 853 l 2
 961 853 981 844 998 827 c 128
 1015 810 1024 790 1024 768 c 2
 1024 523 l 1
 939 523 l 1
 939 523 l 1
512 57 m 1
 443 57 383 78 331 121 c 128
 279 164 246 219 233 284 c 1
 321 284 l 1
 333 242 357 209 392 182 c 128
 427 155 467 142 512 142 c 0
 567 142 613 162 652 201 c 128
 691 240 711 286 711 341 c 128
 711 396 691 442 652 481 c 128
 613 520 567 540 512 540 c 0
 485 540 459 535 436 525 c 128
 413 515 391 501 373 483 c 1
 455 483 l 1
 455 398 l 1
 228 398 l 1
 228 625 l 1
 313 625 l 1
 313 544 l 1
 338 569 368 588 402 603 c 128
 436 618 474 625 512 625 c 0
 590 625 658 597 713 542 c 128
 768 487 796 419 796 341 c 128
 796 263 768 195 713 140 c 128
 658 85 590 57 512 57 c 1
 512 57 l 1
EndSplineSet
EndChar

StartChar: W
Encoding: 87 87 35
Width: 1024
VWidth: 853
Flags: HW
LayerCount: 2
Fore
SplineSet
85 -171 m 1
 63 -171 43 -162 26 -145 c 128
 9 -128 0 -108 0 -86 c 2
 0 768 l 2
 0 790 9 810 26 827 c 128
 43 844 63 853 85 853 c 2
 939 853 l 2
 961 853 981 844 998 827 c 128
 1015 810 1024 790 1024 768 c 2
 1024 -86 l 2
 1024 -108 1015 -128 998 -145 c 128
 981 -162 961 -171 939 -171 c 2
 85 -171 l 1
 85 -171 l 1
85 -86 m 1
 100 -86 100 -86 199 -86 c 2
 313 -86 l 1
 313 142 l 1
 85 142 l 1
 85 -86 l 1
 85 -86 l 1
398 -86 m 1
 412 -86 412 -86 512 -86 c 2
 626 -86 l 1
 626 142 l 1
 398 142 l 1
 398 -86 l 1
 398 -86 l 1
711 -86 m 1
 725 -86 725 -86 825 -86 c 2
 939 -86 l 1
 939 142 l 1
 711 142 l 1
 711 -86 l 1
 711 -86 l 1
85 227 m 1
 100 227 100 227 199 227 c 2
 313 227 l 1
 313 455 l 1
 85 455 l 1
 85 227 l 1
 85 227 l 1
398 227 m 1
 412 227 412 227 512 227 c 2
 626 227 l 1
 626 455 l 1
 398 455 l 1
 398 227 l 1
 398 227 l 1
711 227 m 1
 725 227 725 227 825 227 c 2
 939 227 l 1
 939 455 l 1
 711 455 l 1
 711 227 l 1
 711 227 l 1
85 540 m 1
 100 540 100 540 199 540 c 2
 313 540 l 1
 313 768 l 1
 85 768 l 1
 85 540 l 1
 85 540 l 1
398 540 m 1
 412 540 412 540 512 540 c 2
 626 540 l 1
 626 768 l 1
 398 768 l 1
 398 540 l 1
 398 540 l 1
711 540 m 1
 725 540 725 540 825 540 c 2
 939 540 l 1
 939 768 l 1
 711 768 l 1
 711 540 l 1
 711 540 l 1
EndSplineSet
EndChar

StartChar: X
Encoding: 88 88 36
Width: 1024
VWidth: 853
Flags: HW
LayerCount: 2
Fore
SplineSet
85 -171 m 1
 63 -171 43 -162 26 -145 c 128
 9 -128 0 -108 0 -86 c 2
 0 768 l 2
 0 790 9 810 26 827 c 128
 43 844 63 853 85 853 c 2
 939 853 l 2
 961 853 981 844 998 827 c 128
 1015 810 1024 790 1024 768 c 2
 1024 -86 l 2
 1024 -108 1015 -128 998 -145 c 128
 981 -162 961 -171 939 -171 c 2
 85 -171 l 1
 85 -171 l 1
85 -86 m 1
 139 -86 139 -86 512 -86 c 2
 939 -86 l 1
 939 768 l 1
 85 768 l 1
 85 -86 l 1
 85 -86 l 1
165 52 m 1
 208 52 208 52 513 52 c 2
 860 52 l 1
 651 331 l 1
 464 88 l 1
 331 268 l 1
 165 52 l 1
 165 52 l 1
85 -86 m 1
 85 -32 85 -32 85 341 c 2
 85 768 l 1
 85 -86 l 1
 85 -86 l 1
EndSplineSet
EndChar

StartChar: Y
Encoding: 89 89 37
Width: 1024
VWidth: 853
Flags: HW
LayerCount: 2
Fore
SplineSet
476 507 m 1
 476 509 476 509 476 524 c 2
 476 541 l 1
 441 549 412 568 389 596 c 128
 366 624 354 658 354 695 c 0
 354 739 370 776 401 807 c 128
 432 838 469 853 512 853 c 128
 555 853 593 838 624 807 c 128
 655 776 670 739 670 695 c 0
 670 658 659 624 636 596 c 128
 613 568 584 549 549 541 c 1
 549 507 l 1
 913 297 l 2
 925 290 933 282 940 270 c 128
 947 258 950 246 950 233 c 2
 950 112 l 2
 950 99 947 87 940 76 c 128
 933 65 925 56 913 49 c 2
 549 -161 l 2
 537 -168 524 -171 512 -171 c 128
 500 -171 488 -168 476 -161 c 2
 111 49 l 2
 99 56 91 65 84 76 c 128
 77 87 75 99 75 112 c 2
 75 233 l 2
 75 246 77 258 84 270 c 128
 91 282 99 290 111 297 c 2
 476 507 l 1
 476 507 l 1
476 25 m 1
 462 32 407 64 312 119 c 2
 148 213 l 1
 148 112 l 1
 512 -98 l 1
 877 112 l 1
 877 214 l 1
 549 25 l 2
 537 18 524 15 512 15 c 128
 500 15 488 18 476 25 c 1
 476 25 l 1
476 246 m 1
 476 257 476 257 476 334 c 2
 476 423 l 1
 203 265 l 1
 512 87 l 1
 821 266 l 1
 549 423 l 1
 549 246 l 1
 476 246 l 1
 476 246 l 1
512 610 m 1
 536 610 555 618 572 635 c 128
 589 652 597 672 597 695 c 128
 597 718 589 738 572 755 c 128
 555 772 535 780 512 780 c 128
 489 780 469 773 452 756 c 128
 435 739 427 719 427 696 c 128
 427 673 435 652 452 635 c 128
 469 618 489 610 512 610 c 1
 512 610 l 1
512 -98 m 1024
EndSplineSet
EndChar

StartChar: Z
Encoding: 90 90 38
Width: 1024
VWidth: 853
Flags: HW
LayerCount: 2
Fore
SplineSet
0 -57 m 1
 11 -40 53 26 128 142 c 2
 256 341 l 1
 0 739 l 1
 680 739 l 2
 701 739 720 734 737 723 c 128
 754 712 769 699 781 683 c 2
 1024 341 l 1
 781 0 l 2
 769 -16 754 -29 737 -40 c 128
 720 -51 701 -57 680 -57 c 2
 0 -57 l 1
 0 -57 l 1
156 28 m 1
 190 28 190 28 427 28 c 2
 697 28 l 1
 919 341 l 1
 697 654 l 1
 156 654 l 1
 358 341 l 1
 156 28 l 1
 156 28 l 1
358 341 m 1
 350 354 316 406 257 498 c 2
 156 654 l 1
 358 341 l 1
 156 28 l 1
 358 341 l 1
 358 341 l 1
EndSplineSet
EndChar

StartChar: a
Encoding: 97 97 39
Width: 1024
VWidth: 853
Flags: HW
LayerCount: 2
Fore
SplineSet
512 354 m 1
 537 354 559 364 576 381 c 128
 593 398 602 419 602 444 c 128
 602 469 593 490 576 507 c 128
 559 524 537 533 512 533 c 128
 487 533 465 523 448 506 c 128
 431 489 422 468 422 443 c 128
 422 418 432 397 449 380 c 128
 466 363 487 354 512 354 c 1
 512 354 l 1
512 -70 m 1
 625 33 709 127 763 211 c 128
 817 295 845 369 845 433 c 0
 845 534 812 616 748 680 c 128
 684 744 605 776 512 776 c 128
 419 776 340 744 276 680 c 128
 212 616 179 534 179 433 c 0
 179 369 206 295 262 211 c 128
 318 127 401 33 512 -70 c 1
 512 -70 l 1
512 -171 m 1
 375 -54 271 55 204 155 c 128
 137 255 103 348 103 433 c 0
 103 561 145 663 227 739 c 128
 309 815 404 853 512 853 c 128
 620 853 716 815 798 739 c 128
 880 663 922 561 922 433 c 0
 922 348 888 255 820 155 c 128
 752 55 649 -54 512 -171 c 1
 512 -171 l 1
512 433 m 1024
EndSplineSet
EndChar

StartChar: b
Encoding: 98 98 40
Width: 1024
VWidth: 853
Flags: HW
LayerCount: 2
Fore
SplineSet
77 751 m 1
 81 743 97 710 124 653 c 2
 172 556 l 1
 338 556 l 1
 243 751 l 1
 357 751 l 1
 452 556 l 1
 618 556 l 1
 524 751 l 1
 637 751 l 1
 732 556 l 1
 899 556 l 1
 804 751 l 1
 947 751 l 2
 968 751 986 743 1001 728 c 128
 1016 713 1024 695 1024 674 c 2
 1024 8 l 2
 1024 -12 1016 -29 1001 -45 c 128
 986 -61 968 -69 947 -68 c 2
 77 -68 l 2
 56 -68 38 -60 23 -45 c 128
 8 -30 0 -12 0 8 c 2
 0 674 l 2
 0 695 8 713 23 728 c 128
 38 743 56 751 77 751 c 1
 77 751 l 1
77 479 m 1
 77 450 77 450 77 244 c 2
 77 8 l 1
 947 8 l 1
 947 479 l 1
 77 479 l 1
 77 479 l 1
77 479 m 1
 77 450 77 450 77 244 c 2
 77 8 l 1
 77 479 l 1
 77 479 l 1
EndSplineSet
EndChar

StartChar: c
Encoding: 99 99 41
Width: 1024
VWidth: 853
Flags: HW
LayerCount: 2
Fore
SplineSet
477 -171 m 1
 477 -166 477 -166 477 -127 c 2
 477 -83 l 1
 370 -72 282 -31 211 40 c 128
 140 111 99 199 88 306 c 1
 0 306 l 1
 0 376 l 1
 88 376 l 1
 99 483 140 571 211 642 c 128
 282 713 370 754 477 765 c 1
 477 853 l 1
 547 853 l 1
 547 765 l 1
 654 754 742 713 813 642 c 128
 884 571 925 483 936 376 c 1
 1024 376 l 1
 1024 306 l 1
 936 306 l 1
 925 199 884 111 813 40 c 128
 742 -31 654 -72 547 -83 c 1
 547 -171 l 1
 477 -171 l 1
 477 -171 l 1
512 -14 m 1
 609 -14 692 21 762 91 c 128
 832 161 867 244 867 341 c 128
 867 438 832 521 762 591 c 128
 692 661 609 696 512 696 c 128
 415 696 332 661 262 591 c 128
 192 521 157 438 157 341 c 128
 157 244 192 161 262 91 c 128
 332 21 415 -14 512 -14 c 1
 512 -14 l 1
512 166 m 1
 463 166 420 183 387 216 c 128
 354 249 337 292 337 341 c 128
 337 390 354 433 387 466 c 128
 420 499 463 516 512 516 c 128
 561 516 604 499 637 466 c 128
 670 433 687 390 687 341 c 128
 687 292 670 249 637 216 c 128
 604 183 561 166 512 166 c 1
 512 166 l 1
512 236 m 1
 541 236 567 246 587 266 c 128
 607 286 617 312 617 341 c 128
 617 370 607 396 587 416 c 128
 567 436 541 446 512 446 c 128
 483 446 457 436 437 416 c 128
 417 396 407 370 407 341 c 128
 407 312 417 286 437 266 c 128
 457 246 483 236 512 236 c 1
 512 236 l 1
512 341 m 1024
EndSplineSet
EndChar

StartChar: d
Encoding: 100 100 42
Width: 1024
VWidth: 853
Flags: HW
LayerCount: 2
Fore
SplineSet
511 67 m 1
 573 67 625 88 667 130 c 128
 709 172 730 224 730 286 c 128
 730 348 709 399 667 441 c 128
 625 483 574 503 512 503 c 128
 450 503 399 483 357 441 c 128
 315 399 294 348 294 286 c 128
 294 224 315 172 357 130 c 128
 399 88 449 67 511 67 c 1
 511 67 l 1
511 144 m 1
 471 144 438 158 411 185 c 128
 384 212 371 246 371 286 c 128
 371 326 384 359 411 386 c 128
 438 413 472 426 512 426 c 128
 552 426 585 413 612 386 c 128
 639 359 653 326 653 286 c 128
 653 246 639 212 612 185 c 128
 585 158 552 144 511 144 c 1
 511 144 l 1
77 -119 m 1
 56 -119 38 -111 23 -96 c 128
 8 -81 0 -63 0 -43 c 2
 0 614 l 2
 0 633 8 651 23 667 c 128
 38 683 56 691 77 691 c 2
 265 691 l 1
 358 802 l 1
 666 802 l 1
 759 691 l 1
 947 691 l 2
 967 691 985 683 1001 667 c 128
 1017 651 1024 633 1024 614 c 2
 1024 -43 l 2
 1024 -63 1017 -81 1001 -97 c 128
 985 -113 967 -120 947 -119 c 2
 77 -119 l 1
 77 -119 l 1
947 -43 m 1
 947 -2 947 -2 947 286 c 2
 947 614 l 1
 723 614 l 1
 630 725 l 1
 394 725 l 1
 301 614 l 1
 77 614 l 1
 77 -43 l 1
 947 -43 l 1
 947 -43 l 1
512 285 m 1024
EndSplineSet
EndChar

StartChar: e
Encoding: 101 101 43
Width: 1024
VWidth: 853
Flags: HW
LayerCount: 2
Fore
SplineSet
339 209 m 1
 370 209 370 209 589 209 c 2
 840 209 l 1
 677 428 l 1
 545 255 l 1
 458 367 l 1
 339 209 l 1
 339 209 l 1
230 -17 m 1
 210 -17 192 -9 177 6 c 128
 162 21 154 39 154 59 c 2
 154 776 l 2
 154 797 162 815 177 830 c 128
 192 845 210 853 230 853 c 2
 947 853 l 2
 968 853 986 845 1001 830 c 128
 1016 815 1024 797 1024 776 c 2
 1024 59 l 2
 1024 39 1016 21 1001 6 c 128
 986 -9 968 -17 947 -17 c 2
 230 -17 l 1
 230 -17 l 1
230 59 m 1
 275 59 275 59 589 59 c 2
 947 59 l 1
 947 776 l 1
 230 776 l 1
 230 59 l 1
 230 59 l 1
77 -171 m 1
 56 -171 38 -163 23 -148 c 128
 8 -133 0 -115 0 -94 c 2
 0 699 l 1
 77 699 l 1
 77 -94 l 1
 870 -94 l 1
 870 -171 l 1
 77 -171 l 1
 77 -171 l 1
230 776 m 1
 230 731 230 731 230 418 c 2
 230 59 l 1
 230 776 l 1
 230 776 l 1
EndSplineSet
EndChar

StartChar: f
Encoding: 102 102 44
Width: 1024
VWidth: 853
Flags: HW
LayerCount: 2
Fore
SplineSet
512 280 m 1
 500 280 490 284 482 292 c 128
 474 300 470 311 470 323 c 2
 470 811 l 2
 470 823 474 833 482 841 c 128
 490 849 500 853 512 853 c 128
 524 853 535 849 543 841 c 128
 551 833 555 823 555 811 c 2
 555 323 l 2
 555 311 550 300 542 292 c 128
 534 284 524 280 512 280 c 1
 512 280 l 1
512 -171 m 1
 441 -171 376 -158 314 -131 c 128
 252 -104 199 -69 153 -23 c 128
 107 23 71 76 44 138 c 128
 17 200 4 266 5 337 c 0
 4 404 16 467 43 528 c 128
 70 589 107 643 154 691 c 0
 162 699 174 703 186 704 c 128
 198 705 209 700 217 692 c 128
 225 684 230 674 228 662 c 128
 226 650 221 640 213 632 c 0
 174 592 144 546 122 496 c 128
 100 446 89 393 89 337 c 0
 89 219 130 119 212 37 c 128
 294 -45 394 -86 512 -86 c 128
 630 -86 730 -45 812 37 c 128
 894 119 935 219 935 337 c 0
 935 393 924 446 903 497 c 128
 882 548 852 593 813 633 c 0
 805 641 799 652 798 664 c 128
 797 676 802 685 810 692 c 0
 819 701 831 706 843 704 c 128
 855 702 867 697 876 688 c 0
 922 640 957 586 982 526 c 128
 1007 466 1020 403 1020 337 c 0
 1020 266 1007 200 980 138 c 128
 953 76 918 23 872 -23 c 128
 826 -69 773 -104 711 -131 c 128
 649 -158 583 -171 512 -171 c 1
 512 -171 l 1
EndSplineSet
EndChar

StartChar: g
Encoding: 103 103 45
Width: 1024
VWidth: 853
Flags: HW
LayerCount: 2
Fore
SplineSet
512 -171 m 1
 370 -171 249 -122 149 -22 c 128
 49 78 0 199 0 341 c 128
 0 483 49 604 149 704 c 128
 249 804 370 853 512 853 c 0
 603 853 683 835 751 798 c 128
 819 761 878 711 928 647 c 1
 928 853 l 1
 1024 853 l 1
 1024 447 l 1
 618 447 l 1
 618 543 l 1
 886 543 l 1
 846 607 795 659 732 698 c 128
 669 737 595 757 512 757 c 0
 396 757 298 717 217 636 c 128
 136 555 96 457 96 341 c 128
 96 225 136 127 217 46 c 128
 298 -35 396 -75 512 -75 c 0
 600 -75 683 -50 756 1 c 128
 829 52 881 119 909 202 c 1
 1008 202 l 1
 977 90 916 -1 824 -69 c 128
 732 -137 628 -171 512 -171 c 1
 512 -171 l 1
EndSplineSet
EndChar

StartChar: h
Encoding: 104 104 46
Width: 1024
VWidth: 853
Flags: HW
LayerCount: 2
Fore
SplineSet
1024 630 m 1
 1024 585 1024 585 1024 272 c 2
 1024 -86 l 2
 1024 -108 1015 -128 998 -145 c 128
 981 -162 961 -171 939 -171 c 2
 85 -171 l 2
 63 -171 43 -162 26 -145 c 128
 9 -128 0 -108 0 -86 c 2
 0 768 l 2
 0 790 9 810 26 827 c 128
 43 844 63 853 85 853 c 2
 801 853 l 1
 1024 630 l 1
 1024 630 l 1
939 591 m 1
 932 598 902 627 850 679 c 2
 762 768 l 1
 85 768 l 1
 85 -86 l 1
 939 -86 l 1
 939 591 l 1
 939 591 l 1
512 7 m 1
 553 7 588 22 617 50 c 128
 646 78 660 114 660 155 c 128
 660 196 645 231 617 260 c 128
 589 289 553 303 512 303 c 128
 471 303 436 288 407 260 c 128
 378 232 364 197 364 156 c 128
 364 115 379 80 407 51 c 128
 435 22 470 7 512 7 c 1
 512 7 l 1
161 489 m 1
 193 489 193 489 415 489 c 2
 670 489 l 1
 670 692 l 1
 161 692 l 1
 161 489 l 1
 161 489 l 1
85 591 m 1
 85 549 85 549 85 253 c 2
 85 -86 l 1
 85 768 l 1
 85 591 l 1
 85 591 l 1
EndSplineSet
EndChar

StartChar: i
Encoding: 105 105 47
Width: 1024
VWidth: 853
Flags: HW
LayerCount: 2
Fore
SplineSet
394 -171 m 1
 393 -164 389 -137 381 -90 c 2
 369 -10 l 1
 352 -4 334 5 317 15 c 128
 300 25 284 35 270 47 c 1
 119 -23 l 1
 0 187 l 1
 138 289 l 1
 136 296 136 305 135 315 c 2
 134 341 l 1
 135 367 l 2
 136 377 136 386 138 393 c 1
 0 495 l 1
 119 705 l 1
 270 635 l 1
 284 647 300 657 317 667 c 128
 334 677 352 685 369 690 c 1
 394 853 l 1
 630 853 l 1
 655 692 l 1
 672 686 689 678 707 668 c 128
 725 658 742 647 754 635 c 1
 905 705 l 1
 1024 495 l 1
 886 396 l 1
 888 388 888 378 889 369 c 2
 890 341 l 2
 890 333 890 323 889 314 c 128
 888 305 888 295 886 287 c 1
 1024 187 l 1
 905 -23 l 1
 754 47 l 1
 740 35 724 25 707 14 c 128
 690 3 672 -5 655 -10 c 1
 630 -171 l 1
 394 -171 l 1
 394 -171 l 1
512 175 m 1
 558 175 598 191 630 223 c 128
 662 255 678 295 678 341 c 128
 678 387 662 427 630 459 c 128
 598 491 558 507 512 507 c 128
 466 507 426 491 394 459 c 128
 362 427 346 387 346 341 c 128
 346 295 362 255 394 223 c 128
 426 191 466 175 512 175 c 1
 512 175 l 1
512 251 m 1
 487 251 465 260 448 277 c 128
 431 294 422 316 422 341 c 128
 422 366 431 388 448 405 c 128
 465 422 487 431 512 431 c 128
 537 431 559 422 576 405 c 128
 593 388 602 366 602 341 c 128
 602 316 593 294 576 277 c 128
 559 260 537 251 512 251 c 1
 512 251 l 1
512 341 m 1024
456 -94 m 1
 463 -94 463 -94 512 -94 c 2
 568 -94 l 1
 586 49 l 1
 614 56 641 66 666 81 c 128
 691 96 714 113 735 134 c 1
 870 75 l 1
 922 167 l 1
 801 255 l 1
 804 270 808 284 810 298 c 128
 812 312 813 326 813 341 c 128
 813 356 813 370 811 384 c 128
 809 398 806 412 801 427 c 1
 922 515 l 1
 870 607 l 1
 735 548 l 1
 715 570 693 589 668 604 c 128
 643 619 616 628 586 633 c 1
 568 776 l 1
 456 776 l 1
 438 633 l 1
 409 627 382 617 357 602 c 128
 332 587 309 570 289 548 c 1
 154 607 l 1
 102 515 l 1
 223 427 l 1
 220 412 216 398 214 384 c 128
 212 370 211 356 211 341 c 128
 211 326 212 312 214 298 c 128
 216 284 220 270 223 255 c 1
 102 167 l 1
 154 75 l 1
 289 134 l 1
 310 113 333 96 358 81 c 128
 383 66 410 56 438 49 c 1
 456 -94 l 1
 456 -94 l 1
EndSplineSet
EndChar

StartChar: j
Encoding: 106 106 48
Width: 1024
VWidth: 853
Flags: HW
LayerCount: 2
Fore
SplineSet
595 -146 m 1
 580 -150 565 -147 553 -138 c 128
 541 -129 534 -116 534 -100 c 2
 534 158 l 2
 534 174 541 187 553 196 c 128
 565 205 580 208 597 204 c 0
 627 196 657 190 687 187 c 128
 717 184 747 182 779 182 c 128
 811 182 842 183 872 186 c 128
 902 189 932 196 963 204 c 0
 978 208 993 205 1005 196 c 128
 1017 187 1024 174 1024 158 c 2
 1024 -100 l 2
 1024 -116 1017 -129 1005 -138 c 128
 993 -147 978 -150 963 -146 c 0
 932 -138 902 -132 872 -129 c 128
 842 -126 811 -124 779 -124 c 128
 747 -124 717 -126 687 -129 c 128
 657 -132 626 -138 595 -146 c 1
 595 -146 l 1
490 341 m 1024
377 -148 m 1
 376 -142 372 -116 365 -71 c 2
 353 6 l 1
 337 11 320 19 303 29 c 128
 286 39 271 49 258 60 c 1
 114 -6 l 1
 0 194 l 1
 132 291 l 1
 130 298 130 307 129 316 c 2
 129 341 l 1
 129 367 l 2
 130 376 130 385 132 392 c 1
 0 488 l 1
 114 689 l 1
 258 623 l 1
 271 634 286 644 303 654 c 128
 320 664 337 671 353 676 c 1
 377 831 l 1
 603 831 l 1
 627 677 l 1
 642 671 660 663 677 654 c 128
 694 645 709 635 721 623 c 1
 866 689 l 1
 980 488 l 1
 848 394 l 1
 849 386 849 377 849 368 c 2
 850 343 l 1
 850 292 l 1
 777 292 l 1
 777 343 l 2
 777 359 777 374 775 386 c 128
 773 398 770 412 767 424 c 1
 882 508 l 1
 833 596 l 1
 703 540 l 1
 685 562 663 580 640 594 c 128
 617 608 589 617 561 621 c 1
 544 758 l 1
 436 758 l 1
 419 621 l 1
 391 615 365 604 341 591 c 128
 317 578 295 561 277 540 c 1
 147 596 l 1
 98 508 l 1
 213 424 l 1
 210 410 207 395 205 382 c 128
 203 369 202 354 202 341 c 128
 202 328 203 314 205 301 c 128
 207 288 210 273 213 259 c 1
 98 175 l 1
 147 87 l 1
 277 143 l 1
 299 121 323 104 350 90 c 128
 377 76 406 65 436 59 c 1
 436 -148 l 1
 377 -148 l 1
 377 -148 l 1
436 192 m 1
 436 197 436 197 436 234 c 2
 436 275 l 1
 426 283 418 294 412 305 c 128
 406 316 404 328 404 341 c 0
 404 365 412 385 429 402 c 128
 446 419 466 427 489 427 c 128
 512 427 534 419 551 402 c 128
 568 385 576 365 576 341 c 0
 576 333 574 323 572 315 c 128
 570 307 566 299 561 292 c 1
 642 292 l 1
 644 300 646 309 647 316 c 128
 648 323 649 333 649 341 c 0
 649 386 633 424 602 455 c 128
 571 486 534 501 490 501 c 128
 446 501 408 486 377 455 c 128
 346 424 331 386 331 341 c 0
 331 306 341 276 361 249 c 128
 381 222 405 204 436 192 c 1
 436 192 l 1
EndSplineSet
EndChar

StartChar: k
Encoding: 107 107 49
Width: 1024
VWidth: 853
Flags: HW
LayerCount: 2
Fore
SplineSet
608 -148 m 1
 587 -148 570 -141 556 -127 c 128
 542 -113 534 -96 534 -75 c 2
 534 170 l 2
 534 191 542 208 556 222 c 128
 570 236 587 243 608 243 c 2
 681 243 l 1
 730 292 l 1
 828 292 l 1
 877 243 l 1
 951 243 l 2
 971 243 988 236 1002 222 c 128
 1016 208 1024 191 1024 170 c 2
 1024 -75 l 2
 1024 -96 1016 -113 1002 -127 c 128
 988 -141 971 -148 951 -148 c 2
 608 -148 l 1
 608 -148 l 1
779 -51 m 1
 806 -51 829 -41 848 -22 c 128
 867 -3 877 20 877 47 c 128
 877 74 867 97 848 116 c 128
 829 135 806 145 779 145 c 128
 752 145 729 135 710 116 c 128
 691 97 681 74 681 47 c 128
 681 20 691 -3 710 -22 c 128
 729 -41 752 -51 779 -51 c 1
 779 -51 l 1
490 341 m 1024
490 501 m 1
 446 501 408 486 377 455 c 128
 346 424 331 386 331 341 c 0
 331 306 341 275 361 248 c 128
 381 221 405 203 436 191 c 1
 436 274 l 1
 428 281 420 292 413 304 c 128
 406 316 404 329 404 341 c 0
 404 365 412 385 429 402 c 128
 446 419 466 427 490 427 c 0
 505 427 519 424 531 417 c 128
 543 410 553 402 560 390 c 1
 641 390 l 1
 630 422 611 449 584 470 c 128
 557 491 525 501 490 501 c 1
 490 501 l 1
377 -148 m 1
 376 -142 372 -116 365 -71 c 2
 353 6 l 1
 337 11 320 19 303 29 c 128
 286 39 271 49 258 60 c 1
 114 -6 l 1
 0 194 l 1
 132 291 l 1
 130 298 130 307 129 316 c 2
 129 341 l 1
 129 367 l 2
 130 376 130 385 132 392 c 1
 0 488 l 1
 114 689 l 1
 258 623 l 1
 271 634 286 644 303 654 c 128
 320 664 337 671 353 676 c 1
 377 831 l 1
 603 831 l 1
 627 677 l 1
 642 671 660 663 677 654 c 128
 694 645 709 635 721 623 c 1
 866 689 l 1
 980 488 l 1
 848 390 l 1
 848 389 l 1
 848 390 l 1
 773 390 l 1
 770 407 l 2
 769 412 769 418 767 424 c 1
 882 508 l 1
 833 596 l 1
 703 540 l 1
 685 562 663 580 640 594 c 128
 617 608 589 617 561 621 c 1
 544 758 l 1
 436 758 l 1
 419 621 l 1
 391 615 365 604 341 591 c 128
 317 578 295 561 277 540 c 1
 147 596 l 1
 98 508 l 1
 213 424 l 1
 210 410 207 395 205 382 c 128
 203 369 202 354 202 341 c 128
 202 328 203 314 205 301 c 128
 207 288 210 273 213 259 c 1
 98 175 l 1
 147 87 l 1
 277 143 l 1
 299 121 323 104 350 90 c 128
 377 76 406 65 436 59 c 1
 436 -148 l 1
 377 -148 l 1
 377 -148 l 1
EndSplineSet
EndChar

StartChar: l
Encoding: 108 108 50
Width: 1024
VWidth: 853
Flags: HW
LayerCount: 2
Fore
SplineSet
727 -167 m 1
 672 -159 625 -134 586 -95 c 128
 547 -56 523 -9 515 47 c 1
 593 47 l 1
 600 14 617 -15 641 -40 c 128
 665 -65 694 -82 727 -89 c 1
 727 -167 l 1
 727 -167 l 1
804 -167 m 1
 804 -162 804 -162 804 -128 c 2
 804 -89 l 1
 845 -81 878 -60 905 -28 c 128
 932 4 945 42 945 85 c 128
 945 128 932 166 905 198 c 128
 878 230 845 251 804 259 c 1
 804 337 l 1
 866 328 916 299 958 252 c 128
 1000 205 1021 149 1021 85 c 128
 1021 21 1000 -35 958 -82 c 128
 916 -129 866 -158 804 -167 c 1
 804 -167 l 1
515 123 m 1
 523 179 547 227 586 266 c 128
 625 305 672 329 727 337 c 1
 727 259 l 1
 694 252 665 236 641 211 c 128
 617 186 600 156 593 123 c 1
 515 123 l 1
 515 123 l 1
714 -17 m 1
 714 -5 714 -5 714 85 c 2
 714 187 l 1
 873 85 l 1
 714 -17 l 1
 714 -17 l 1
512 341 m 1024
394 -171 m 1
 393 -164 389 -137 381 -90 c 2
 369 -10 l 1
 352 -4 334 5 317 15 c 128
 300 25 284 35 270 47 c 1
 119 -23 l 1
 0 187 l 1
 138 289 l 1
 136 296 136 305 135 315 c 2
 134 341 l 1
 135 367 l 2
 136 377 136 386 138 393 c 1
 0 495 l 1
 119 705 l 1
 270 635 l 1
 284 647 300 657 317 667 c 128
 334 677 352 685 369 690 c 1
 394 853 l 1
 630 853 l 1
 655 692 l 1
 672 686 689 678 707 668 c 128
 725 658 742 647 754 635 c 1
 905 705 l 1
 1024 495 l 1
 910 414 l 1
 895 421 881 426 866 430 c 128
 851 434 836 438 819 440 c 1
 922 515 l 1
 870 607 l 1
 735 548 l 1
 715 570 693 589 668 604 c 128
 643 619 616 628 586 633 c 1
 568 776 l 1
 456 776 l 1
 438 633 l 1
 409 627 382 617 357 602 c 128
 332 587 309 570 289 548 c 1
 154 607 l 1
 102 515 l 1
 223 427 l 1
 220 412 216 398 214 384 c 128
 212 370 211 356 211 341 c 128
 211 326 212 312 214 298 c 128
 216 284 220 270 223 255 c 1
 102 167 l 1
 154 75 l 1
 289 134 l 1
 306 117 326 101 346 88 c 128
 366 75 388 64 411 57 c 1
 414 12 426 -31 444 -69 c 128
 462 -107 487 -141 517 -171 c 1
 394 -171 l 1
 394 -171 l 1
428 198 m 1
 432 210 437 221 442 233 c 128
 447 245 453 256 460 268 c 1
 448 276 439 288 432 300 c 128
 425 312 422 326 422 341 c 0
 422 366 431 388 448 405 c 128
 465 422 487 431 512 431 c 0
 527 431 541 428 553 421 c 128
 565 414 577 405 585 393 c 1
 597 400 608 406 620 411 c 128
 632 416 643 421 655 425 c 1
 641 450 621 470 596 485 c 128
 571 500 543 507 512 507 c 0
 466 507 426 491 394 459 c 128
 362 427 346 387 346 341 c 0
 346 310 353 282 368 257 c 128
 383 232 403 212 428 198 c 1
 428 198 l 1
EndSplineSet
EndChar

StartChar: m
Encoding: 109 109 51
Width: 1024
VWidth: 853
Flags: HW
LayerCount: 2
Fore
SplineSet
279 62 m 1
 202 62 136 89 82 143 c 128
 28 197 0 264 0 341 c 128
 0 418 28 486 82 540 c 128
 136 594 202 621 279 621 c 2
 745 621 l 2
 822 621 888 594 942 540 c 128
 996 486 1024 418 1024 341 c 128
 1024 264 996 197 942 143 c 128
 888 89 822 62 745 62 c 2
 279 62 l 1
 279 62 l 1
279 132 m 1
 308 132 308 132 512 132 c 2
 745 132 l 2
 803 132 852 152 893 193 c 128
 934 234 954 283 954 341 c 128
 954 399 934 449 893 490 c 128
 852 531 803 551 745 551 c 2
 279 551 l 2
 221 551 172 531 131 490 c 128
 90 449 70 399 70 341 c 128
 70 283 90 234 131 193 c 128
 172 152 221 132 279 132 c 1
 279 132 l 1
278 224 m 1
 310 224 339 236 362 258 c 128
 385 280 396 309 396 341 c 128
 396 373 385 402 362 425 c 128
 339 448 310 459 278 459 c 128
 246 459 217 448 195 425 c 128
 173 402 161 373 161 341 c 128
 161 309 173 280 195 258 c 128
 217 236 246 224 278 224 c 1
 278 224 l 1
512 341 m 1024
EndSplineSet
EndChar

StartChar: n
Encoding: 110 110 52
Width: 1024
VWidth: 853
Flags: HW
LayerCount: 2
Fore
SplineSet
187 164 m 1
 241 171 295 177 349 181 c 128
 403 185 457 187 512 187 c 128
 567 187 621 185 675 181 c 128
 729 177 783 171 837 164 c 1
 625 437 l 1
 466 234 l 1
 355 377 l 1
 187 164 l 1
 187 164 l 1
51 -68 m 1
 36 -69 24 -64 14 -54 c 128
 4 -44 0 -32 0 -17 c 2
 0 700 l 2
 0 714 4 726 14 736 c 128
 24 746 36 751 51 751 c 0
 58 751 74 747 97 739 c 128
 120 731 152 721 191 712 c 128
 230 703 277 694 330 686 c 128
 383 678 444 674 512 674 c 128
 580 674 641 678 694 686 c 128
 747 694 794 703 833 712 c 128
 872 721 904 731 927 739 c 128
 950 747 966 751 973 751 c 0
 988 751 1000 746 1010 736 c 128
 1020 726 1024 714 1024 700 c 2
 1024 -17 l 2
 1024 -32 1020 -44 1010 -54 c 128
 1000 -64 988 -69 973 -68 c 0
 966 -68 950 -64 927 -56 c 128
 904 -48 872 -39 833 -30 c 128
 794 -21 747 -12 694 -4 c 128
 641 4 580 8 512 8 c 128
 444 8 383 4 330 -4 c 128
 277 -12 230 -21 191 -30 c 128
 152 -39 120 -48 97 -56 c 128
 74 -64 58 -68 51 -68 c 1
 51 -68 l 1
77 17 m 1
 147 42 219 60 292 70 c 128
 365 80 438 85 512 85 c 128
 586 85 659 80 732 70 c 128
 805 60 877 42 947 17 c 1
 947 664 l 1
 877 640 805 622 732 612 c 128
 659 602 586 597 512 597 c 128
 438 597 365 602 292 612 c 128
 219 622 147 640 77 664 c 1
 77 17 l 1
 77 17 l 1
512 341 m 1024
EndSplineSet
EndChar
